<svg xmlns="http://www.w3.org/2000/svg" width="24" height="24" viewBox="0 0 18 18">
  <g id="cv_3_-_linkedin-icon" data-name="cv 3 - linkedin-icon" transform="translate(-460.896 -98.789)">
    <g id="Group_40" data-name="Group 40">
      <g id="Group_39" data-name="Group 39">
        <g id="Group_36" data-name="Group 36">
          <path id="Path_452" data-name="Path 452" d="M469.9,116.789a9,9,0,1,1,9-9A9.01,9.01,0,0,1,469.9,116.789Z" fill="#3f7167"/>
        </g>
        <g id="Group_38" data-name="Group 38">
          <g id="Group_37" data-name="Group 37">
            <path id="Path_453" data-name="Path 453" d="M474.984,108.474v3.361a.151.151,0,0,1-.151.15H473.1a.151.151,0,0,1-.151-.15v-3.126c0-.822-.294-1.384-1.031-1.384a1.114,1.114,0,0,0-1.044.745,1.4,1.4,0,0,0-.067.5v3.268a.151.151,0,0,1-.15.151h-1.735a.15.15,0,0,1-.15-.151c0-.832.021-4.87,0-5.819a.149.149,0,0,1,.15-.152h1.731a.15.15,0,0,1,.15.15v.717l-.013.02h.013v-.02a2.022,2.022,0,0,1,1.835-1.011c1.339,0,2.343.875,2.343,2.755Zm-9.224,3.511h1.735a.15.15,0,0,0,.15-.15v-5.822a.15.15,0,0,0-.15-.15H465.76a.15.15,0,0,0-.15.15v5.822A.15.15,0,0,0,465.76,111.985Z" fill="#fff"/>
          </g>
        </g>
      </g>
    </g>
    <g id="Group_41" data-name="Group 41">
      <circle id="Ellipse_9" data-name="Ellipse 9" cx="1.09" cy="1.09" r="1.09" transform="translate(465.477 102.905)" fill="#fff"/>
    </g>
  </g>
</svg>
