<svg xmlns="http://www.w3.org/2000/svg" width="24.03" height="24.03" viewBox="0 0 18.03 18.03">
  <g id="cv_3_-_twitter-icon" data-name="cv 3 - twitter-icon" transform="translate(-460.881 -123.765)">
    <g id="Group_26" data-name="Group 26">
      <g id="Group_25" data-name="Group 25">
        <path id="Path_444" data-name="Path 444" d="M469.9,141.795a9.015,9.015,0,1,1,9.015-9.015A9.025,9.025,0,0,1,469.9,141.795Z" fill="#3f7167"/>
      </g>
    </g>
    <g id="Group_32" data-name="Group 32">
      <g id="Group_27" data-name="Group 27">
        <path id="Path_445" data-name="Path 445" d="M475.077,129.49a4.35,4.35,0,0,1-1.061.3c.171-.029.423-.338.523-.464a1.947,1.947,0,0,0,.354-.643c.009-.019.016-.042,0-.056a.063.063,0,0,0-.057,0,5.423,5.423,0,0,1-1.26.483.085.085,0,0,1-.087-.023.989.989,0,0,0-.11-.113,2.222,2.222,0,0,0-.611-.374,2.116,2.116,0,0,0-.937-.151,2.232,2.232,0,0,0-.889.251,2.306,2.306,0,0,0-.717.585,2.215,2.215,0,0,0-.428.858,2.317,2.317,0,0,0-.022.9c.006.051,0,.058-.044.051A6.737,6.737,0,0,1,465.4,128.9c-.051-.058-.078-.058-.12,0a2.2,2.2,0,0,0,.375,2.6c.085.08.172.161.266.234a2.217,2.217,0,0,1-.836-.234c-.051-.032-.076-.014-.08.044a1.321,1.321,0,0,0,.013.248,2.223,2.223,0,0,0,1.369,1.771,1.352,1.352,0,0,0,.278.085,2.488,2.488,0,0,1-.82.025c-.06-.011-.082.018-.06.076a2.306,2.306,0,0,0,1.723,1.442c.078.014.156.014.235.032-.005.007-.01.007-.014.014a2.729,2.729,0,0,1-1.177.624,4.222,4.222,0,0,1-1.786.229c-.1-.015-.117-.014-.143,0s0,.039.028.064c.122.08.246.151.372.22a5.922,5.922,0,0,0,1.194.478,6.363,6.363,0,0,0,6.177-1.444,6.484,6.484,0,0,0,1.709-4.728c0-.068.08-.106.128-.142a4.157,4.157,0,0,0,.837-.874.252.252,0,0,0,.051-.167v-.009C475.116,129.462,475.12,129.47,475.077,129.49Z" fill="#fff"/>
      </g>
      <g id="Group_28" data-name="Group 28">
        <path id="Path_446" data-name="Path 446" d="M467.729,137.07Z" fill="#fff" fill-rule="evenodd"/>
      </g>
      <g id="Group_29" data-name="Group 29">
        <path id="Path_447" data-name="Path 447" d="M467.729,137.07Z" fill="#fff" fill-rule="evenodd"/>
      </g>
      <g id="Group_30" data-name="Group 30">
        <path id="Path_448" data-name="Path 448" d="M468.083,137.079c0-.017.186,0,0,0C468.083,137.07,468.106,137.079,468.083,137.079Z" fill="#fff" fill-rule="evenodd"/>
      </g>
      <g id="Group_31" data-name="Group 31">
        <path id="Path_449" data-name="Path 449" d="M471.8,128.465a.039.039,0,0,1-.044,0Z" fill="#fff" fill-rule="evenodd"/>
      </g>
    </g>
  </g>
</svg>
