<svg xmlns="http://www.w3.org/2000/svg" width="380.338"
              height="163.156" viewBox="0 0 183.338 93.156">
  <g id="cv_3_-_dotted_background" data-name="cv 3 - dotted background" transform="translate(-370.712 -162.292)">
    <path id="Path_454" data-name="Path 454" d="M584.05,162.918a.628.628,0,1,0-.628.629A.627.627,0,0,0,584.05,162.918Z" fill="#fff"/>
    <path id="Path_455" data-name="Path 455" d="M584.05,169.989a.628.628,0,1,0-.628.626A.627.627,0,0,0,584.05,169.989Z" fill="#fff"/>
    <path id="Path_456" data-name="Path 456" d="M584.05,177.057a.628.628,0,1,0-.628.629A.628.628,0,0,0,584.05,177.057Z" fill="#fff"/>
    <path id="Path_457" data-name="Path 457" d="M584.05,184.127a.628.628,0,1,0-.628.627A.628.628,0,0,0,584.05,184.127Z" fill="#fff"/>
    <path id="Path_458" data-name="Path 458" d="M584.05,191.2a.628.628,0,1,0-.628.627A.628.628,0,0,0,584.05,191.2Z" fill="#fff"/>
    <path id="Path_459" data-name="Path 459" d="M584.05,198.266a.628.628,0,1,0-.627.627A.627.627,0,0,0,584.05,198.266Z" fill="#fff"/>
    <path id="Path_460" data-name="Path 460" d="M584.05,205.336a.628.628,0,1,0-.627.625A.628.628,0,0,0,584.05,205.336Z" fill="#fff"/>
    <path id="Path_461" data-name="Path 461" d="M584.05,212.406a.628.628,0,1,0-.627.626A.628.628,0,0,0,584.05,212.406Z" fill="#fff"/>
    <path id="Path_462" data-name="Path 462" d="M584.05,219.475a.628.628,0,1,0-.627.627A.628.628,0,0,0,584.05,219.475Z" fill="#fff"/>
    <path id="Path_463" data-name="Path 463" d="M584.05,226.543a.628.628,0,1,0-.627.628A.627.627,0,0,0,584.05,226.543Z" fill="#fff"/>
    <path id="Path_464" data-name="Path 464" d="M584.05,233.613a.628.628,0,1,0-.627.627A.628.628,0,0,0,584.05,233.613Z" fill="#fff"/>
    <path id="Path_465" data-name="Path 465" d="M584.05,240.682a.628.628,0,1,0-.627.628A.627.627,0,0,0,584.05,240.682Z" fill="#fff"/>
    <path id="Path_466" data-name="Path 466" d="M584.05,247.751a.628.628,0,1,0-.627.628A.627.627,0,0,0,584.05,247.751Z" fill="#fff"/>
    <path id="Path_467" data-name="Path 467" d="M582.794,254.821a.628.628,0,1,0,.629-.627A.627.627,0,0,0,582.794,254.821Z" fill="#fff"/>
    <path id="Path_468" data-name="Path 468" d="M576.98,162.918a.627.627,0,1,0-.627.629A.628.628,0,0,0,576.98,162.918Z" fill="#fff"/>
    <path id="Path_469" data-name="Path 469" d="M576.98,169.989a.627.627,0,1,0-.627.626A.627.627,0,0,0,576.98,169.989Z" fill="#fff"/>
    <path id="Path_470" data-name="Path 470" d="M576.98,177.057a.627.627,0,1,0-.627.629A.629.629,0,0,0,576.98,177.057Z" fill="#fff"/>
    <path id="Path_471" data-name="Path 471" d="M576.98,184.127a.627.627,0,1,0-.627.627A.629.629,0,0,0,576.98,184.127Z" fill="#fff"/>
    <path id="Path_472" data-name="Path 472" d="M576.98,191.2a.627.627,0,1,0-.627.627A.628.628,0,0,0,576.98,191.2Z" fill="#fff"/>
    <path id="Path_473" data-name="Path 473" d="M576.98,198.266a.627.627,0,1,0-.626.627A.628.628,0,0,0,576.98,198.266Z" fill="#fff"/>
    <path id="Path_474" data-name="Path 474" d="M576.98,205.336a.627.627,0,1,0-.626.625A.629.629,0,0,0,576.98,205.336Z" fill="#fff"/>
    <path id="Path_475" data-name="Path 475" d="M576.98,212.406a.627.627,0,1,0-.626.626A.628.628,0,0,0,576.98,212.406Z" fill="#fff"/>
    <path id="Path_476" data-name="Path 476" d="M576.98,219.475a.627.627,0,1,0-.626.627A.629.629,0,0,0,576.98,219.475Z" fill="#fff"/>
    <path id="Path_477" data-name="Path 477" d="M576.98,226.543a.627.627,0,1,0-.626.628A.627.627,0,0,0,576.98,226.543Z" fill="#fff"/>
    <path id="Path_478" data-name="Path 478" d="M576.98,233.613a.627.627,0,1,0-.626.627A.628.628,0,0,0,576.98,233.613Z" fill="#fff"/>
    <path id="Path_479" data-name="Path 479" d="M576.98,240.682a.627.627,0,1,0-.626.628A.628.628,0,0,0,576.98,240.682Z" fill="#fff"/>
    <path id="Path_480" data-name="Path 480" d="M576.98,247.751a.627.627,0,1,0-.626.628A.627.627,0,0,0,576.98,247.751Z" fill="#fff"/>
    <path id="Path_481" data-name="Path 481" d="M576.98,254.821a.627.627,0,1,0-.626.627A.628.628,0,0,0,576.98,254.821Z" fill="#fff"/>
    <path id="Path_482" data-name="Path 482" d="M569.911,162.918a.628.628,0,1,0-.628.629A.627.627,0,0,0,569.911,162.918Z" fill="#fff"/>
    <path id="Path_483" data-name="Path 483" d="M569.911,169.989a.628.628,0,1,0-.628.626A.627.627,0,0,0,569.911,169.989Z" fill="#fff"/>
    <path id="Path_484" data-name="Path 484" d="M569.911,177.057a.628.628,0,1,0-.628.629A.628.628,0,0,0,569.911,177.057Z" fill="#fff"/>
    <path id="Path_485" data-name="Path 485" d="M569.911,184.127a.628.628,0,1,0-.628.627A.628.628,0,0,0,569.911,184.127Z" fill="#fff"/>
    <path id="Path_486" data-name="Path 486" d="M569.911,191.2a.628.628,0,1,0-.628.627A.628.628,0,0,0,569.911,191.2Z" fill="#fff"/>
    <path id="Path_487" data-name="Path 487" d="M569.911,198.266a.628.628,0,1,0-.627.627A.627.627,0,0,0,569.911,198.266Z" fill="#fff"/>
    <path id="Path_488" data-name="Path 488" d="M569.911,205.336a.628.628,0,1,0-.627.625A.628.628,0,0,0,569.911,205.336Z" fill="#fff"/>
    <path id="Path_489" data-name="Path 489" d="M569.911,212.406a.628.628,0,1,0-.627.626A.628.628,0,0,0,569.911,212.406Z" fill="#fff"/>
    <path id="Path_490" data-name="Path 490" d="M569.911,219.475a.628.628,0,1,0-.627.627A.628.628,0,0,0,569.911,219.475Z" fill="#fff"/>
    <path id="Path_491" data-name="Path 491" d="M569.911,226.543a.628.628,0,1,0-.627.628A.627.627,0,0,0,569.911,226.543Z" fill="#fff"/>
    <path id="Path_492" data-name="Path 492" d="M569.911,233.613a.628.628,0,1,0-.627.627A.628.628,0,0,0,569.911,233.613Z" fill="#fff"/>
    <path id="Path_493" data-name="Path 493" d="M569.911,240.682a.628.628,0,1,0-.627.628A.627.627,0,0,0,569.911,240.682Z" fill="#fff"/>
    <path id="Path_494" data-name="Path 494" d="M569.911,247.751a.628.628,0,1,0-.627.628A.627.627,0,0,0,569.911,247.751Z" fill="#fff"/>
    <path id="Path_495" data-name="Path 495" d="M569.911,254.821a.628.628,0,1,0-.627.627A.628.628,0,0,0,569.911,254.821Z" fill="#fff"/>
    <path id="Path_496" data-name="Path 496" d="M562.841,162.918a.628.628,0,1,0-.627.629A.627.627,0,0,0,562.841,162.918Z" fill="#fff"/>
    <path id="Path_497" data-name="Path 497" d="M562.841,169.989a.628.628,0,1,0-.627.626A.627.627,0,0,0,562.841,169.989Z" fill="#fff"/>
    <path id="Path_498" data-name="Path 498" d="M562.841,177.057a.628.628,0,1,0-.627.629A.628.628,0,0,0,562.841,177.057Z" fill="#fff"/>
    <path id="Path_499" data-name="Path 499" d="M562.841,184.127a.628.628,0,1,0-.627.627A.628.628,0,0,0,562.841,184.127Z" fill="#fff"/>
    <path id="Path_500" data-name="Path 500" d="M562.841,191.2a.628.628,0,1,0-.627.627A.627.627,0,0,0,562.841,191.2Z" fill="#fff"/>
    <path id="Path_501" data-name="Path 501" d="M562.841,198.266a.628.628,0,1,0-.626.627A.627.627,0,0,0,562.841,198.266Z" fill="#fff"/>
    <path id="Path_502" data-name="Path 502" d="M562.841,205.336a.628.628,0,1,0-.626.625A.628.628,0,0,0,562.841,205.336Z" fill="#fff"/>
    <path id="Path_503" data-name="Path 503" d="M562.841,212.406a.628.628,0,1,0-.626.626A.627.627,0,0,0,562.841,212.406Z" fill="#fff"/>
    <path id="Path_504" data-name="Path 504" d="M562.841,219.475a.628.628,0,1,0-.626.627A.628.628,0,0,0,562.841,219.475Z" fill="#fff"/>
    <path id="Path_505" data-name="Path 505" d="M562.841,226.543a.628.628,0,1,0-.626.628A.627.627,0,0,0,562.841,226.543Z" fill="#fff"/>
    <path id="Path_506" data-name="Path 506" d="M562.841,233.613a.628.628,0,1,0-.626.627A.627.627,0,0,0,562.841,233.613Z" fill="#fff"/>
    <path id="Path_507" data-name="Path 507" d="M562.841,240.682a.628.628,0,1,0-.626.628A.627.627,0,0,0,562.841,240.682Z" fill="#fff"/>
    <path id="Path_508" data-name="Path 508" d="M562.841,247.751a.628.628,0,1,0-.626.628A.626.626,0,0,0,562.841,247.751Z" fill="#fff"/>
    <path id="Path_509" data-name="Path 509" d="M562.841,254.821a.628.628,0,1,0-.626.627A.628.628,0,0,0,562.841,254.821Z" fill="#fff"/>
    <path id="Path_510" data-name="Path 510" d="M555.772,162.918a.627.627,0,1,0-.628.629A.629.629,0,0,0,555.772,162.918Z" fill="#fff"/>
    <path id="Path_511" data-name="Path 511" d="M555.772,169.989a.627.627,0,1,0-.628.626A.628.628,0,0,0,555.772,169.989Z" fill="#fff"/>
    <path id="Path_512" data-name="Path 512" d="M555.772,177.057a.627.627,0,1,0-.628.629A.629.629,0,0,0,555.772,177.057Z" fill="#fff"/>
    <path id="Path_513" data-name="Path 513" d="M555.772,184.127a.627.627,0,1,0-.628.627A.63.63,0,0,0,555.772,184.127Z" fill="#fff"/>
    <path id="Path_514" data-name="Path 514" d="M555.772,191.2a.627.627,0,1,0-.628.627A.629.629,0,0,0,555.772,191.2Z" fill="#fff"/>
    <path id="Path_515" data-name="Path 515" d="M555.772,198.266a.626.626,0,1,0-.626.627A.627.627,0,0,0,555.772,198.266Z" fill="#fff"/>
    <path id="Path_516" data-name="Path 516" d="M555.772,205.336a.626.626,0,1,0-.626.625A.628.628,0,0,0,555.772,205.336Z" fill="#fff"/>
    <path id="Path_517" data-name="Path 517" d="M555.772,212.406a.626.626,0,1,0-.626.626A.627.627,0,0,0,555.772,212.406Z" fill="#fff"/>
    <path id="Path_518" data-name="Path 518" d="M555.772,219.475a.626.626,0,1,0-.626.627A.628.628,0,0,0,555.772,219.475Z" fill="#fff"/>
    <path id="Path_519" data-name="Path 519" d="M555.772,226.543a.626.626,0,1,0-.626.628A.626.626,0,0,0,555.772,226.543Z" fill="#fff"/>
    <path id="Path_520" data-name="Path 520" d="M555.772,233.613a.626.626,0,1,0-.626.627A.627.627,0,0,0,555.772,233.613Z" fill="#fff"/>
    <path id="Path_521" data-name="Path 521" d="M555.772,240.682a.626.626,0,1,0-.626.628A.627.627,0,0,0,555.772,240.682Z" fill="#fff"/>
    <path id="Path_522" data-name="Path 522" d="M555.772,247.751a.626.626,0,1,0-.626.628A.626.626,0,0,0,555.772,247.751Z" fill="#fff"/>
    <path id="Path_523" data-name="Path 523" d="M555.772,254.821a.626.626,0,1,0-.626.627A.628.628,0,0,0,555.772,254.821Z" fill="#fff"/>
    <path id="Path_524" data-name="Path 524" d="M548.7,162.918a.627.627,0,1,0-.627.629A.628.628,0,0,0,548.7,162.918Z" fill="#fff"/>
    <path id="Path_525" data-name="Path 525" d="M548.7,169.989a.627.627,0,1,0-.627.626A.627.627,0,0,0,548.7,169.989Z" fill="#fff"/>
    <path id="Path_526" data-name="Path 526" d="M548.7,177.057a.627.627,0,1,0-.627.629A.629.629,0,0,0,548.7,177.057Z" fill="#fff"/>
    <path id="Path_527" data-name="Path 527" d="M548.7,184.127a.627.627,0,1,0-.627.627A.629.629,0,0,0,548.7,184.127Z" fill="#fff"/>
    <path id="Path_528" data-name="Path 528" d="M548.7,191.2a.627.627,0,1,0-.627.627A.628.628,0,0,0,548.7,191.2Z" fill="#fff"/>
    <path id="Path_529" data-name="Path 529" d="M548.7,198.266a.627.627,0,1,0-.627.627A.627.627,0,0,0,548.7,198.266Z" fill="#fff"/>
    <path id="Path_530" data-name="Path 530" d="M548.7,205.336a.627.627,0,1,0-.627.625A.628.628,0,0,0,548.7,205.336Z" fill="#fff"/>
    <path id="Path_531" data-name="Path 531" d="M548.7,212.406a.627.627,0,1,0-.627.626A.628.628,0,0,0,548.7,212.406Z" fill="#fff"/>
    <path id="Path_532" data-name="Path 532" d="M548.7,219.475a.627.627,0,1,0-.627.627A.628.628,0,0,0,548.7,219.475Z" fill="#fff"/>
    <path id="Path_533" data-name="Path 533" d="M548.7,226.543a.627.627,0,1,0-.627.628A.627.627,0,0,0,548.7,226.543Z" fill="#fff"/>
    <path id="Path_534" data-name="Path 534" d="M548.7,233.613a.627.627,0,1,0-.627.627A.628.628,0,0,0,548.7,233.613Z" fill="#fff"/>
    <path id="Path_535" data-name="Path 535" d="M548.7,240.682a.627.627,0,1,0-.627.628A.627.627,0,0,0,548.7,240.682Z" fill="#fff"/>
    <path id="Path_536" data-name="Path 536" d="M548.7,247.751a.627.627,0,1,0-.627.628A.627.627,0,0,0,548.7,247.751Z" fill="#fff"/>
    <path id="Path_537" data-name="Path 537" d="M548.7,254.821a.627.627,0,1,0-.627.627A.628.628,0,0,0,548.7,254.821Z" fill="#fff"/>
    <path id="Path_538" data-name="Path 538" d="M541.632,162.918a.627.627,0,1,0-.627.629A.627.627,0,0,0,541.632,162.918Z" fill="#fff"/>
    <path id="Path_539" data-name="Path 539" d="M541.632,169.989a.627.627,0,1,0-.627.626A.627.627,0,0,0,541.632,169.989Z" fill="#fff"/>
    <path id="Path_540" data-name="Path 540" d="M541.632,177.057a.627.627,0,1,0-.627.629A.628.628,0,0,0,541.632,177.057Z" fill="#fff"/>
    <path id="Path_541" data-name="Path 541" d="M541.632,184.127a.627.627,0,1,0-.627.627A.628.628,0,0,0,541.632,184.127Z" fill="#fff"/>
    <path id="Path_542" data-name="Path 542" d="M541.632,191.2a.627.627,0,1,0-.627.627A.627.627,0,0,0,541.632,191.2Z" fill="#fff"/>
    <path id="Path_543" data-name="Path 543" d="M541.632,198.266a.626.626,0,1,0-.625.627A.626.626,0,0,0,541.632,198.266Z" fill="#fff"/>
    <path id="Path_544" data-name="Path 544" d="M541.632,205.336a.626.626,0,1,0-.625.625A.627.627,0,0,0,541.632,205.336Z" fill="#fff"/>
    <path id="Path_545" data-name="Path 545" d="M541.632,212.406a.626.626,0,1,0-.625.626A.627.627,0,0,0,541.632,212.406Z" fill="#fff"/>
    <path id="Path_546" data-name="Path 546" d="M541.632,219.475a.626.626,0,1,0-.625.627A.627.627,0,0,0,541.632,219.475Z" fill="#fff"/>
    <path id="Path_547" data-name="Path 547" d="M541.632,226.543a.626.626,0,1,0-.625.628A.626.626,0,0,0,541.632,226.543Z" fill="#fff"/>
    <path id="Path_548" data-name="Path 548" d="M541.632,233.613a.626.626,0,1,0-.625.627A.627.627,0,0,0,541.632,233.613Z" fill="#fff"/>
    <path id="Path_549" data-name="Path 549" d="M541.632,240.682a.626.626,0,1,0-.625.628A.626.626,0,0,0,541.632,240.682Z" fill="#fff"/>
    <path id="Path_550" data-name="Path 550" d="M541.632,247.751a.626.626,0,1,0-.625.628A.625.625,0,0,0,541.632,247.751Z" fill="#fff"/>
    <path id="Path_551" data-name="Path 551" d="M541.632,254.821a.626.626,0,1,0-.625.627A.627.627,0,0,0,541.632,254.821Z" fill="#fff"/>
    <path id="Path_552" data-name="Path 552" d="M534.563,162.918a.627.627,0,1,0-.626.629A.626.626,0,0,0,534.563,162.918Z" fill="#fff"/>
    <path id="Path_553" data-name="Path 553" d="M534.563,169.989a.626.626,0,1,0-.626.626A.626.626,0,0,0,534.563,169.989Z" fill="#fff"/>
    <path id="Path_554" data-name="Path 554" d="M534.563,177.057a.627.627,0,1,0-.626.629A.627.627,0,0,0,534.563,177.057Z" fill="#fff"/>
    <path id="Path_555" data-name="Path 555" d="M534.563,184.127a.626.626,0,1,0-.626.627A.627.627,0,0,0,534.563,184.127Z" fill="#fff"/>
    <path id="Path_556" data-name="Path 556" d="M534.563,191.2a.626.626,0,1,0-.626.627A.626.626,0,0,0,534.563,191.2Z" fill="#fff"/>
    <path id="Path_557" data-name="Path 557" d="M534.563,198.266a.626.626,0,1,0-.626.627A.626.626,0,0,0,534.563,198.266Z" fill="#fff"/>
    <path id="Path_558" data-name="Path 558" d="M534.563,205.336a.626.626,0,1,0-.626.625A.627.627,0,0,0,534.563,205.336Z" fill="#fff"/>
    <path id="Path_559" data-name="Path 559" d="M534.563,212.406a.626.626,0,1,0-.626.626A.626.626,0,0,0,534.563,212.406Z" fill="#fff"/>
    <path id="Path_560" data-name="Path 560" d="M534.563,219.475a.626.626,0,1,0-.626.627A.627.627,0,0,0,534.563,219.475Z" fill="#fff"/>
    <path id="Path_561" data-name="Path 561" d="M534.563,226.543a.626.626,0,1,0-.626.628A.625.625,0,0,0,534.563,226.543Z" fill="#fff"/>
    <circle id="Ellipse_10" data-name="Ellipse 10" cx="0.627" cy="0.627" r="0.627" transform="translate(533.31 232.986)" fill="#fff"/>
    <path id="Path_562" data-name="Path 562" d="M534.563,240.682a.626.626,0,1,0-.626.628A.626.626,0,0,0,534.563,240.682Z" fill="#fff"/>
    <path id="Path_563" data-name="Path 563" d="M534.563,247.751a.626.626,0,1,0-.626.628A.625.625,0,0,0,534.563,247.751Z" fill="#fff"/>
    <path id="Path_564" data-name="Path 564" d="M534.563,254.821a.626.626,0,1,0-.626.627A.626.626,0,0,0,534.563,254.821Z" fill="#fff"/>
    <path id="Path_565" data-name="Path 565" d="M527.495,162.918a.628.628,0,1,0-.629.629A.628.628,0,0,0,527.495,162.918Z" fill="#fff"/>
    <path id="Path_566" data-name="Path 566" d="M527.495,169.989a.628.628,0,1,0-.629.626A.628.628,0,0,0,527.495,169.989Z" fill="#fff"/>
    <path id="Path_567" data-name="Path 567" d="M527.495,177.057a.628.628,0,1,0-.629.629A.629.629,0,0,0,527.495,177.057Z" fill="#fff"/>
    <path id="Path_568" data-name="Path 568" d="M527.495,184.127a.628.628,0,1,0-.629.627A.629.629,0,0,0,527.495,184.127Z" fill="#fff"/>
    <path id="Path_569" data-name="Path 569" d="M527.495,191.2a.628.628,0,1,0-.629.627A.628.628,0,0,0,527.495,191.2Z" fill="#fff"/>
    <path id="Path_570" data-name="Path 570" d="M527.495,198.266a.628.628,0,1,0-.629.627A.628.628,0,0,0,527.495,198.266Z" fill="#fff"/>
    <path id="Path_571" data-name="Path 571" d="M527.495,205.336a.628.628,0,1,0-.629.625A.629.629,0,0,0,527.495,205.336Z" fill="#fff"/>
    <path id="Path_572" data-name="Path 572" d="M527.495,212.406a.628.628,0,1,0-.629.626A.629.629,0,0,0,527.495,212.406Z" fill="#fff"/>
    <path id="Path_573" data-name="Path 573" d="M527.495,219.475a.628.628,0,1,0-.629.627A.629.629,0,0,0,527.495,219.475Z" fill="#fff"/>
    <path id="Path_574" data-name="Path 574" d="M527.495,226.543a.628.628,0,1,0-.629.628A.628.628,0,0,0,527.495,226.543Z" fill="#fff"/>
    <path id="Path_575" data-name="Path 575" d="M527.495,233.613a.628.628,0,1,0-.629.627A.629.629,0,0,0,527.495,233.613Z" fill="#fff"/>
    <path id="Path_576" data-name="Path 576" d="M527.495,240.682a.628.628,0,1,0-.629.628A.628.628,0,0,0,527.495,240.682Z" fill="#fff"/>
    <path id="Path_577" data-name="Path 577" d="M527.495,247.751a.628.628,0,1,0-.629.628A.628.628,0,0,0,527.495,247.751Z" fill="#fff"/>
    <path id="Path_578" data-name="Path 578" d="M527.495,254.821a.628.628,0,1,0-.629.627A.629.629,0,0,0,527.495,254.821Z" fill="#fff"/>
    <path id="Path_579" data-name="Path 579" d="M520.425,162.918a.627.627,0,1,0-.627.629A.627.627,0,0,0,520.425,162.918Z" fill="#fff"/>
    <path id="Path_580" data-name="Path 580" d="M520.425,169.989a.627.627,0,1,0-.627.626A.627.627,0,0,0,520.425,169.989Z" fill="#fff"/>
    <path id="Path_581" data-name="Path 581" d="M520.425,177.057a.627.627,0,1,0-.627.629A.628.628,0,0,0,520.425,177.057Z" fill="#fff"/>
    <path id="Path_582" data-name="Path 582" d="M520.425,184.127a.627.627,0,1,0-.627.627A.628.628,0,0,0,520.425,184.127Z" fill="#fff"/>
    <path id="Path_583" data-name="Path 583" d="M520.425,191.2a.627.627,0,1,0-.627.627A.627.627,0,0,0,520.425,191.2Z" fill="#fff"/>
    <path id="Path_584" data-name="Path 584" d="M520.427,198.266a.628.628,0,1,0-.629.627A.629.629,0,0,0,520.427,198.266Z" fill="#fff"/>
    <path id="Path_585" data-name="Path 585" d="M520.427,205.336a.628.628,0,1,0-.629.625A.63.63,0,0,0,520.427,205.336Z" fill="#fff"/>
    <path id="Path_586" data-name="Path 586" d="M520.427,212.406a.628.628,0,1,0-.629.626A.629.629,0,0,0,520.427,212.406Z" fill="#fff"/>
    <path id="Path_587" data-name="Path 587" d="M520.427,219.475a.628.628,0,1,0-.629.627A.63.63,0,0,0,520.427,219.475Z" fill="#fff"/>
    <path id="Path_588" data-name="Path 588" d="M520.427,226.543a.628.628,0,1,0-.629.628A.628.628,0,0,0,520.427,226.543Z" fill="#fff"/>
    <path id="Path_589" data-name="Path 589" d="M520.427,233.613a.628.628,0,1,0-.629.627A.629.629,0,0,0,520.427,233.613Z" fill="#fff"/>
    <path id="Path_590" data-name="Path 590" d="M520.427,240.682a.628.628,0,1,0-.629.628A.629.629,0,0,0,520.427,240.682Z" fill="#fff"/>
    <path id="Path_591" data-name="Path 591" d="M520.427,247.751a.628.628,0,1,0-.629.628A.628.628,0,0,0,520.427,247.751Z" fill="#fff"/>
    <path id="Path_592" data-name="Path 592" d="M520.427,254.821a.628.628,0,1,0-.629.627A.63.63,0,0,0,520.427,254.821Z" fill="#fff"/>
    <path id="Path_593" data-name="Path 593" d="M513.355,162.918a.627.627,0,1,0-.627.629A.626.626,0,0,0,513.355,162.918Z" fill="#fff"/>
    <path id="Path_594" data-name="Path 594" d="M513.355,169.989a.627.627,0,1,0-.627.626A.626.626,0,0,0,513.355,169.989Z" fill="#fff"/>
    <path id="Path_595" data-name="Path 595" d="M513.355,177.057a.627.627,0,1,0-.627.629A.627.627,0,0,0,513.355,177.057Z" fill="#fff"/>
    <path id="Path_596" data-name="Path 596" d="M513.355,184.127a.627.627,0,1,0-.627.627A.628.628,0,0,0,513.355,184.127Z" fill="#fff"/>
    <path id="Path_597" data-name="Path 597" d="M513.355,191.2a.627.627,0,1,0-.627.627A.627.627,0,0,0,513.355,191.2Z" fill="#fff"/>
    <path id="Path_598" data-name="Path 598" d="M513.356,198.266a.628.628,0,1,0-.628.627A.627.627,0,0,0,513.356,198.266Z" fill="#fff"/>
    <path id="Path_599" data-name="Path 599" d="M513.356,205.336a.628.628,0,1,0-.628.625A.628.628,0,0,0,513.356,205.336Z" fill="#fff"/>
    <path id="Path_600" data-name="Path 600" d="M513.356,212.406a.628.628,0,1,0-.628.626A.627.627,0,0,0,513.356,212.406Z" fill="#fff"/>
    <path id="Path_601" data-name="Path 601" d="M513.356,219.475a.628.628,0,1,0-.628.627A.628.628,0,0,0,513.356,219.475Z" fill="#fff"/>
    <path id="Path_602" data-name="Path 602" d="M513.356,226.543a.628.628,0,1,0-.628.628A.626.626,0,0,0,513.356,226.543Z" fill="#fff"/>
    <path id="Path_603" data-name="Path 603" d="M513.356,233.613a.628.628,0,1,0-.628.627A.627.627,0,0,0,513.356,233.613Z" fill="#fff"/>
    <path id="Path_604" data-name="Path 604" d="M513.356,240.682a.628.628,0,1,0-.628.628A.627.627,0,0,0,513.356,240.682Z" fill="#fff"/>
    <path id="Path_605" data-name="Path 605" d="M513.356,247.751a.628.628,0,1,0-.628.628A.626.626,0,0,0,513.356,247.751Z" fill="#fff"/>
    <path id="Path_606" data-name="Path 606" d="M513.356,254.821a.628.628,0,1,0-.628.627A.628.628,0,0,0,513.356,254.821Z" fill="#fff"/>
    <path id="Path_607" data-name="Path 607" d="M506.285,162.918a.628.628,0,1,0-.627.629A.627.627,0,0,0,506.285,162.918Z" fill="#fff"/>
    <path id="Path_608" data-name="Path 608" d="M506.285,169.989a.628.628,0,1,0-.627.628A.626.626,0,0,0,506.285,169.989Z" fill="#fff"/>
    <path id="Path_609" data-name="Path 609" d="M506.285,177.057a.628.628,0,1,0-.627.629A.627.627,0,0,0,506.285,177.057Z" fill="#fff"/>
    <path id="Path_610" data-name="Path 610" d="M506.285,184.127a.628.628,0,1,0-.627.629A.627.627,0,0,0,506.285,184.127Z" fill="#fff"/>
    <path id="Path_611" data-name="Path 611" d="M506.285,191.2a.628.628,0,1,0-.627.628A.626.626,0,0,0,506.285,191.2Z" fill="#fff"/>
    <path id="Path_612" data-name="Path 612" d="M506.287,198.266a.627.627,0,1,0-.629.629A.628.628,0,0,0,506.287,198.266Z" fill="#fff"/>
    <path id="Path_613" data-name="Path 613" d="M506.287,205.336a.627.627,0,1,0-.629.625A.628.628,0,0,0,506.287,205.336Z" fill="#fff"/>
    <path id="Path_614" data-name="Path 614" d="M506.287,212.406a.627.627,0,1,0-.629.626A.628.628,0,0,0,506.287,212.406Z" fill="#fff"/>
    <path id="Path_615" data-name="Path 615" d="M506.287,219.475a.627.627,0,1,0-.629.627A.628.628,0,0,0,506.287,219.475Z" fill="#fff"/>
    <path id="Path_616" data-name="Path 616" d="M506.287,226.544a.627.627,0,1,0-.629.627A.626.626,0,0,0,506.287,226.544Z" fill="#fff"/>
    <path id="Path_617" data-name="Path 617" d="M506.287,233.614a.627.627,0,1,0-.629.626A.63.63,0,0,0,506.287,233.614Z" fill="#fff"/>
    <path id="Path_618" data-name="Path 618" d="M506.287,240.683a.627.627,0,1,0-.629.627A.63.63,0,0,0,506.287,240.683Z" fill="#fff"/>
    <path id="Path_619" data-name="Path 619" d="M506.287,247.752a.627.627,0,1,0-.629.627A.628.628,0,0,0,506.287,247.752Z" fill="#fff"/>
    <path id="Path_620" data-name="Path 620" d="M506.287,254.823a.627.627,0,1,0-.629.625A.63.63,0,0,0,506.287,254.823Z" fill="#fff"/>
    <path id="Path_621" data-name="Path 621" d="M499.217,162.918a.628.628,0,1,0-.629.629A.627.627,0,0,0,499.217,162.918Z" fill="#fff"/>
    <path id="Path_622" data-name="Path 622" d="M499.217,169.989a.628.628,0,1,0-.629.628A.627.627,0,0,0,499.217,169.989Z" fill="#fff"/>
    <path id="Path_623" data-name="Path 623" d="M499.217,177.057a.628.628,0,1,0-.629.629A.627.627,0,0,0,499.217,177.057Z" fill="#fff"/>
    <path id="Path_624" data-name="Path 624" d="M499.217,184.127a.628.628,0,1,0-.629.629A.627.627,0,0,0,499.217,184.127Z" fill="#fff"/>
    <path id="Path_625" data-name="Path 625" d="M499.217,191.2a.628.628,0,1,0-.629.628A.626.626,0,0,0,499.217,191.2Z" fill="#fff"/>
    <path id="Path_626" data-name="Path 626" d="M499.217,198.266a.628.628,0,1,0-.629.629A.626.626,0,0,0,499.217,198.266Z" fill="#fff"/>
    <path id="Path_627" data-name="Path 627" d="M499.217,205.336a.628.628,0,1,0-.629.625A.627.627,0,0,0,499.217,205.336Z" fill="#fff"/>
    <path id="Path_628" data-name="Path 628" d="M499.217,212.406a.628.628,0,1,0-.629.626A.627.627,0,0,0,499.217,212.406Z" fill="#fff"/>
    <path id="Path_629" data-name="Path 629" d="M499.217,219.475a.628.628,0,1,0-.629.627A.627.627,0,0,0,499.217,219.475Z" fill="#fff"/>
    <path id="Path_630" data-name="Path 630" d="M499.217,226.544a.628.628,0,1,0-.629.627A.625.625,0,0,0,499.217,226.544Z" fill="#fff"/>
    <path id="Path_631" data-name="Path 631" d="M499.217,233.614a.628.628,0,1,0-.629.626A.629.629,0,0,0,499.217,233.614Z" fill="#fff"/>
    <path id="Path_632" data-name="Path 632" d="M499.217,240.683a.628.628,0,1,0-.629.627A.629.629,0,0,0,499.217,240.683Z" fill="#fff"/>
    <path id="Path_633" data-name="Path 633" d="M499.217,247.752a.628.628,0,1,0-.629.627A.627.627,0,0,0,499.217,247.752Z" fill="#fff"/>
    <path id="Path_634" data-name="Path 634" d="M499.217,254.823a.628.628,0,1,0-.629.625A.629.629,0,0,0,499.217,254.823Z" fill="#fff"/>
    <path id="Path_635" data-name="Path 635" d="M492.146,162.918a.627.627,0,1,0-.626.629A.626.626,0,0,0,492.146,162.918Z" fill="#fff"/>
    <path id="Path_636" data-name="Path 636" d="M492.146,169.989a.627.627,0,1,0-.626.628A.626.626,0,0,0,492.146,169.989Z" fill="#fff"/>
    <path id="Path_637" data-name="Path 637" d="M492.146,177.057a.627.627,0,1,0-.626.629A.626.626,0,0,0,492.146,177.057Z" fill="#fff"/>
    <path id="Path_638" data-name="Path 638" d="M492.146,184.127a.627.627,0,1,0-.626.629A.627.627,0,0,0,492.146,184.127Z" fill="#fff"/>
    <path id="Path_639" data-name="Path 639" d="M492.146,191.2a.627.627,0,1,0-.626.628A.626.626,0,0,0,492.146,191.2Z" fill="#fff"/>
    <path id="Path_640" data-name="Path 640" d="M492.147,198.266a.627.627,0,1,0-.627.629A.627.627,0,0,0,492.147,198.266Z" fill="#fff"/>
    <path id="Path_641" data-name="Path 641" d="M492.147,205.336a.626.626,0,1,0-.627.625A.627.627,0,0,0,492.147,205.336Z" fill="#fff"/>
    <path id="Path_642" data-name="Path 642" d="M492.147,212.406a.626.626,0,1,0-.627.626A.627.627,0,0,0,492.147,212.406Z" fill="#fff"/>
    <path id="Path_643" data-name="Path 643" d="M492.147,219.475a.626.626,0,1,0-.627.627A.627.627,0,0,0,492.147,219.475Z" fill="#fff"/>
    <path id="Path_644" data-name="Path 644" d="M492.147,226.544a.626.626,0,1,0-.627.627A.625.625,0,0,0,492.147,226.544Z" fill="#fff"/>
    <path id="Path_645" data-name="Path 645" d="M492.147,233.614a.626.626,0,1,0-.627.626A.629.629,0,0,0,492.147,233.614Z" fill="#fff"/>
    <path id="Path_646" data-name="Path 646" d="M492.147,240.683a.626.626,0,1,0-.627.627A.629.629,0,0,0,492.147,240.683Z" fill="#fff"/>
    <path id="Path_647" data-name="Path 647" d="M492.147,247.752a.626.626,0,1,0-.627.627A.627.627,0,0,0,492.147,247.752Z" fill="#fff"/>
    <path id="Path_648" data-name="Path 648" d="M492.147,254.823a.626.626,0,1,0-.627.625A.629.629,0,0,0,492.147,254.823Z" fill="#fff"/>
    <path id="Path_649" data-name="Path 649" d="M485.077,162.918a.628.628,0,1,0-.628.629A.627.627,0,0,0,485.077,162.918Z" fill="#fff"/>
    <path id="Path_650" data-name="Path 650" d="M485.077,169.989a.628.628,0,1,0-.628.628A.627.627,0,0,0,485.077,169.989Z" fill="#fff"/>
    <path id="Path_651" data-name="Path 651" d="M485.077,177.057a.628.628,0,1,0-.628.629A.627.627,0,0,0,485.077,177.057Z" fill="#fff"/>
    <path id="Path_652" data-name="Path 652" d="M485.077,184.127a.628.628,0,1,0-.628.629A.628.628,0,0,0,485.077,184.127Z" fill="#fff"/>
    <path id="Path_653" data-name="Path 653" d="M485.077,191.2a.628.628,0,1,0-.628.628A.627.627,0,0,0,485.077,191.2Z" fill="#fff"/>
    <path id="Path_654" data-name="Path 654" d="M485.078,198.266a.628.628,0,1,0-.629.629A.628.628,0,0,0,485.078,198.266Z" fill="#fff"/>
    <path id="Path_655" data-name="Path 655" d="M485.078,205.336a.628.628,0,1,0-.629.625A.628.628,0,0,0,485.078,205.336Z" fill="#fff"/>
    <path id="Path_656" data-name="Path 656" d="M485.078,212.406a.628.628,0,1,0-.629.626A.628.628,0,0,0,485.078,212.406Z" fill="#fff"/>
    <path id="Path_657" data-name="Path 657" d="M485.078,219.475a.628.628,0,1,0-.629.627A.628.628,0,0,0,485.078,219.475Z" fill="#fff"/>
    <path id="Path_658" data-name="Path 658" d="M485.078,226.544a.628.628,0,1,0-.629.627A.626.626,0,0,0,485.078,226.544Z" fill="#fff"/>
    <path id="Path_659" data-name="Path 659" d="M485.078,233.614a.628.628,0,1,0-.629.626A.63.63,0,0,0,485.078,233.614Z" fill="#fff"/>
    <path id="Path_660" data-name="Path 660" d="M485.078,240.683a.628.628,0,1,0-.629.627A.63.63,0,0,0,485.078,240.683Z" fill="#fff"/>
    <path id="Path_661" data-name="Path 661" d="M485.078,247.752a.628.628,0,1,0-.629.627A.628.628,0,0,0,485.078,247.752Z" fill="#fff"/>
    <path id="Path_662" data-name="Path 662" d="M485.078,254.823a.628.628,0,1,0-.629.625A.63.63,0,0,0,485.078,254.823Z" fill="#fff"/>
    <path id="Path_663" data-name="Path 663" d="M478.008,162.918a.627.627,0,1,0-.627.629A.626.626,0,0,0,478.008,162.918Z" fill="#fff"/>
    <path id="Path_664" data-name="Path 664" d="M478.008,169.989a.627.627,0,1,0-.627.628A.625.625,0,0,0,478.008,169.989Z" fill="#fff"/>
    <path id="Path_665" data-name="Path 665" d="M478.008,177.057a.627.627,0,1,0-.627.629A.626.626,0,0,0,478.008,177.057Z" fill="#fff"/>
    <path id="Path_666" data-name="Path 666" d="M478.008,184.127a.627.627,0,1,0-.627.629A.626.626,0,0,0,478.008,184.127Z" fill="#fff"/>
    <path id="Path_667" data-name="Path 667" d="M478.008,191.2a.627.627,0,1,0-.627.628A.625.625,0,0,0,478.008,191.2Z" fill="#fff"/>
    <path id="Path_668" data-name="Path 668" d="M478.009,198.266a.628.628,0,1,0-.628.629A.626.626,0,0,0,478.009,198.266Z" fill="#fff"/>
    <path id="Path_669" data-name="Path 669" d="M478.009,205.336a.628.628,0,1,0-.628.625A.627.627,0,0,0,478.009,205.336Z" fill="#fff"/>
    <path id="Path_670" data-name="Path 670" d="M478.009,212.406a.628.628,0,1,0-.628.626A.626.626,0,0,0,478.009,212.406Z" fill="#fff"/>
    <path id="Path_671" data-name="Path 671" d="M478.009,219.475a.628.628,0,1,0-.628.627A.627.627,0,0,0,478.009,219.475Z" fill="#fff"/>
    <path id="Path_672" data-name="Path 672" d="M478.009,226.544a.628.628,0,1,0-.628.627A.625.625,0,0,0,478.009,226.544Z" fill="#fff"/>
    <path id="Path_673" data-name="Path 673" d="M478.009,233.614a.628.628,0,1,0-.628.626A.629.629,0,0,0,478.009,233.614Z" fill="#fff"/>
    <path id="Path_674" data-name="Path 674" d="M478.009,240.683a.628.628,0,1,0-.628.627A.628.628,0,0,0,478.009,240.683Z" fill="#fff"/>
    <path id="Path_675" data-name="Path 675" d="M478.009,247.752a.628.628,0,1,0-.628.627A.626.626,0,0,0,478.009,247.752Z" fill="#fff"/>
    <path id="Path_676" data-name="Path 676" d="M478.009,254.823a.628.628,0,1,0-.628.625A.629.629,0,0,0,478.009,254.823Z" fill="#fff"/>
    <path id="Path_677" data-name="Path 677" d="M470.938,162.918a.627.627,0,1,0-.626.629A.627.627,0,0,0,470.938,162.918Z" fill="#fff"/>
    <path id="Path_678" data-name="Path 678" d="M470.938,169.989a.627.627,0,1,0-.626.628A.626.626,0,0,0,470.938,169.989Z" fill="#fff"/>
    <path id="Path_679" data-name="Path 679" d="M470.938,177.057a.627.627,0,1,0-.626.629A.627.627,0,0,0,470.938,177.057Z" fill="#fff"/>
    <path id="Path_680" data-name="Path 680" d="M470.938,184.127a.627.627,0,1,0-.626.629A.627.627,0,0,0,470.938,184.127Z" fill="#fff"/>
    <path id="Path_681" data-name="Path 681" d="M470.938,191.2a.627.627,0,1,0-.626.628A.626.626,0,0,0,470.938,191.2Z" fill="#fff"/>
    <path id="Path_682" data-name="Path 682" d="M470.939,198.266a.628.628,0,1,0-.626.629A.627.627,0,0,0,470.939,198.266Z" fill="#fff"/>
    <path id="Path_683" data-name="Path 683" d="M470.939,205.336a.628.628,0,1,0-.626.625A.628.628,0,0,0,470.939,205.336Z" fill="#fff"/>
    <path id="Path_684" data-name="Path 684" d="M470.939,212.406a.628.628,0,1,0-.626.626A.627.627,0,0,0,470.939,212.406Z" fill="#fff"/>
    <path id="Path_685" data-name="Path 685" d="M470.939,219.475a.628.628,0,1,0-.626.627A.628.628,0,0,0,470.939,219.475Z" fill="#fff"/>
    <path id="Path_686" data-name="Path 686" d="M470.939,226.544a.628.628,0,1,0-.626.627A.626.626,0,0,0,470.939,226.544Z" fill="#fff"/>
    <path id="Path_687" data-name="Path 687" d="M470.939,233.614a.628.628,0,1,0-.626.626A.63.63,0,0,0,470.939,233.614Z" fill="#fff"/>
    <path id="Path_688" data-name="Path 688" d="M470.939,240.683a.628.628,0,1,0-.626.627A.629.629,0,0,0,470.939,240.683Z" fill="#fff"/>
    <path id="Path_689" data-name="Path 689" d="M470.939,247.752a.628.628,0,1,0-.626.627A.627.627,0,0,0,470.939,247.752Z" fill="#fff"/>
    <path id="Path_690" data-name="Path 690" d="M470.939,254.823a.628.628,0,1,0-.626.625A.63.63,0,0,0,470.939,254.823Z" fill="#fff"/>
    <path id="Path_691" data-name="Path 691" d="M463.868,162.918a.627.627,0,1,0-.626.629A.626.626,0,0,0,463.868,162.918Z" fill="#fff"/>
    <path id="Path_692" data-name="Path 692" d="M463.868,169.989a.627.627,0,1,0-.626.628A.625.625,0,0,0,463.868,169.989Z" fill="#fff"/>
    <path id="Path_693" data-name="Path 693" d="M463.868,177.057a.627.627,0,1,0-.626.629A.626.626,0,0,0,463.868,177.057Z" fill="#fff"/>
    <path id="Path_694" data-name="Path 694" d="M463.868,184.127a.627.627,0,1,0-.626.629A.626.626,0,0,0,463.868,184.127Z" fill="#fff"/>
    <path id="Path_695" data-name="Path 695" d="M463.868,191.2a.627.627,0,1,0-.626.628A.625.625,0,0,0,463.868,191.2Z" fill="#fff"/>
    <path id="Path_696" data-name="Path 696" d="M463.87,198.266a.628.628,0,1,0-.627.629A.627.627,0,0,0,463.87,198.266Z" fill="#fff"/>
    <path id="Path_697" data-name="Path 697" d="M463.87,205.336a.628.628,0,1,0-.627.625A.627.627,0,0,0,463.87,205.336Z" fill="#fff"/>
    <path id="Path_698" data-name="Path 698" d="M463.87,212.406a.628.628,0,1,0-.627.626A.627.627,0,0,0,463.87,212.406Z" fill="#fff"/>
    <path id="Path_699" data-name="Path 699" d="M463.87,219.475a.628.628,0,1,0-.627.627A.627.627,0,0,0,463.87,219.475Z" fill="#fff"/>
    <path id="Path_700" data-name="Path 700" d="M463.87,226.544a.628.628,0,1,0-.627.627A.625.625,0,0,0,463.87,226.544Z" fill="#fff"/>
    <path id="Path_701" data-name="Path 701" d="M463.87,233.614a.628.628,0,1,0-.627.626A.629.629,0,0,0,463.87,233.614Z" fill="#fff"/>
    <path id="Path_702" data-name="Path 702" d="M463.87,240.683a.628.628,0,1,0-.627.627A.629.629,0,0,0,463.87,240.683Z" fill="#fff"/>
    <path id="Path_703" data-name="Path 703" d="M463.87,247.752a.628.628,0,1,0-.627.627A.627.627,0,0,0,463.87,247.752Z" fill="#fff"/>
    <path id="Path_704" data-name="Path 704" d="M463.87,254.823a.628.628,0,1,0-.627.625A.629.629,0,0,0,463.87,254.823Z" fill="#fff"/>
    <path id="Path_705" data-name="Path 705" d="M456.8,162.918a.627.627,0,1,0-.627.629A.626.626,0,0,0,456.8,162.918Z" fill="#fff"/>
    <path id="Path_706" data-name="Path 706" d="M456.8,169.989a.627.627,0,1,0-.627.628A.625.625,0,0,0,456.8,169.989Z" fill="#fff"/>
    <path id="Path_707" data-name="Path 707" d="M456.8,177.057a.627.627,0,1,0-.627.629A.626.626,0,0,0,456.8,177.057Z" fill="#fff"/>
    <path id="Path_708" data-name="Path 708" d="M456.8,184.127a.627.627,0,1,0-.627.629A.626.626,0,0,0,456.8,184.127Z" fill="#fff"/>
    <path id="Path_709" data-name="Path 709" d="M456.8,191.2a.627.627,0,1,0-.627.628A.625.625,0,0,0,456.8,191.2Z" fill="#fff"/>
    <path id="Path_710" data-name="Path 710" d="M456.8,198.266a.628.628,0,1,0-.627.629A.626.626,0,0,0,456.8,198.266Z" fill="#fff"/>
    <path id="Path_711" data-name="Path 711" d="M456.8,205.336a.628.628,0,1,0-.627.625A.627.627,0,0,0,456.8,205.336Z" fill="#fff"/>
    <path id="Path_712" data-name="Path 712" d="M456.8,212.406a.628.628,0,1,0-.627.626A.626.626,0,0,0,456.8,212.406Z" fill="#fff"/>
    <path id="Path_713" data-name="Path 713" d="M456.8,219.475a.628.628,0,1,0-.627.627A.627.627,0,0,0,456.8,219.475Z" fill="#fff"/>
    <path id="Path_714" data-name="Path 714" d="M456.8,226.544a.628.628,0,1,0-.627.627A.625.625,0,0,0,456.8,226.544Z" fill="#fff"/>
    <path id="Path_715" data-name="Path 715" d="M456.8,233.614a.628.628,0,1,0-.627.626A.628.628,0,0,0,456.8,233.614Z" fill="#fff"/>
    <path id="Path_716" data-name="Path 716" d="M456.8,240.683a.628.628,0,1,0-.627.627A.628.628,0,0,0,456.8,240.683Z" fill="#fff"/>
    <path id="Path_717" data-name="Path 717" d="M456.8,247.752a.628.628,0,1,0-.627.627A.626.626,0,0,0,456.8,247.752Z" fill="#fff"/>
    <path id="Path_718" data-name="Path 718" d="M456.8,254.823a.628.628,0,1,0-.627.625A.628.628,0,0,0,456.8,254.823Z" fill="#fff"/>
    <path id="Path_719" data-name="Path 719" d="M449.73,162.918a.627.627,0,1,0-.626.629A.626.626,0,0,0,449.73,162.918Z" fill="#fff"/>
    <path id="Path_720" data-name="Path 720" d="M449.73,169.989a.627.627,0,1,0-.626.628A.626.626,0,0,0,449.73,169.989Z" fill="#fff"/>
    <path id="Path_721" data-name="Path 721" d="M449.73,177.057a.627.627,0,1,0-.626.629A.626.626,0,0,0,449.73,177.057Z" fill="#fff"/>
    <path id="Path_722" data-name="Path 722" d="M449.73,184.127a.627.627,0,1,0-.626.629A.627.627,0,0,0,449.73,184.127Z" fill="#fff"/>
    <path id="Path_723" data-name="Path 723" d="M449.73,191.2a.627.627,0,1,0-.626.628A.626.626,0,0,0,449.73,191.2Z" fill="#fff"/>
    <path id="Path_724" data-name="Path 724" d="M449.73,198.266a.627.627,0,1,0-.625.629A.625.625,0,0,0,449.73,198.266Z" fill="#fff"/>
    <path id="Path_725" data-name="Path 725" d="M449.73,205.336a.627.627,0,1,0-.625.625A.626.626,0,0,0,449.73,205.336Z" fill="#fff"/>
    <path id="Path_726" data-name="Path 726" d="M449.73,212.406a.627.627,0,1,0-.625.626A.626.626,0,0,0,449.73,212.406Z" fill="#fff"/>
    <path id="Path_727" data-name="Path 727" d="M449.73,219.475a.627.627,0,1,0-.625.627A.626.626,0,0,0,449.73,219.475Z" fill="#fff"/>
    <path id="Path_728" data-name="Path 728" d="M449.73,226.544a.627.627,0,1,0-.625.627A.624.624,0,0,0,449.73,226.544Z" fill="#fff"/>
    <path id="Path_729" data-name="Path 729" d="M449.73,233.614a.627.627,0,1,0-.625.626A.628.628,0,0,0,449.73,233.614Z" fill="#fff"/>
    <path id="Path_730" data-name="Path 730" d="M449.73,240.683a.627.627,0,1,0-.625.627A.628.628,0,0,0,449.73,240.683Z" fill="#fff"/>
    <path id="Path_731" data-name="Path 731" d="M449.73,247.752a.627.627,0,1,0-.625.627A.626.626,0,0,0,449.73,247.752Z" fill="#fff"/>
    <path id="Path_732" data-name="Path 732" d="M449.73,254.823a.627.627,0,1,0-.625.625A.628.628,0,0,0,449.73,254.823Z" fill="#fff"/>
    <path id="Path_733" data-name="Path 733" d="M442.661,162.918a.628.628,0,1,0-.629.629A.626.626,0,0,0,442.661,162.918Z" fill="#fff"/>
    <path id="Path_734" data-name="Path 734" d="M442.661,169.989a.628.628,0,1,0-.629.628A.626.626,0,0,0,442.661,169.989Z" fill="#fff"/>
    <path id="Path_735" data-name="Path 735" d="M442.661,177.057a.628.628,0,1,0-.629.629A.626.626,0,0,0,442.661,177.057Z" fill="#fff"/>
    <path id="Path_736" data-name="Path 736" d="M442.661,184.127a.628.628,0,1,0-.629.629A.627.627,0,0,0,442.661,184.127Z" fill="#fff"/>
    <path id="Path_737" data-name="Path 737" d="M442.661,191.2a.628.628,0,1,0-.629.628A.626.626,0,0,0,442.661,191.2Z" fill="#fff"/>
    <path id="Path_738" data-name="Path 738" d="M442.661,198.266a.628.628,0,1,0-.626.629A.625.625,0,0,0,442.661,198.266Z" fill="#fff"/>
    <path id="Path_739" data-name="Path 739" d="M442.661,205.336a.628.628,0,1,0-.626.625A.626.626,0,0,0,442.661,205.336Z" fill="#fff"/>
    <path id="Path_740" data-name="Path 740" d="M442.661,212.406a.628.628,0,1,0-.626.626A.625.625,0,0,0,442.661,212.406Z" fill="#fff"/>
    <path id="Path_741" data-name="Path 741" d="M442.661,219.475a.628.628,0,1,0-.626.627A.626.626,0,0,0,442.661,219.475Z" fill="#fff"/>
    <path id="Path_742" data-name="Path 742" d="M442.661,226.544a.628.628,0,1,0-.626.627A.624.624,0,0,0,442.661,226.544Z" fill="#fff"/>
    <path id="Path_743" data-name="Path 743" d="M442.661,233.614a.628.628,0,1,0-.626.626A.628.628,0,0,0,442.661,233.614Z" fill="#fff"/>
    <path id="Path_744" data-name="Path 744" d="M442.661,240.683a.628.628,0,1,0-.626.627A.627.627,0,0,0,442.661,240.683Z" fill="#fff"/>
    <path id="Path_745" data-name="Path 745" d="M442.661,247.752a.628.628,0,1,0-.626.627A.625.625,0,0,0,442.661,247.752Z" fill="#fff"/>
    <path id="Path_746" data-name="Path 746" d="M442.661,254.823a.628.628,0,1,0-.626.625A.628.628,0,0,0,442.661,254.823Z" fill="#fff"/>
    <path id="Path_747" data-name="Path 747" d="M435.591,162.918a.627.627,0,1,0-.627.629A.626.626,0,0,0,435.591,162.918Z" fill="#fff"/>
    <path id="Path_748" data-name="Path 748" d="M435.591,169.989a.627.627,0,1,0-.627.628A.625.625,0,0,0,435.591,169.989Z" fill="#fff"/>
    <path id="Path_749" data-name="Path 749" d="M435.591,177.057a.627.627,0,1,0-.627.629A.626.626,0,0,0,435.591,177.057Z" fill="#fff"/>
    <path id="Path_750" data-name="Path 750" d="M435.591,184.127a.627.627,0,1,0-.627.629A.626.626,0,0,0,435.591,184.127Z" fill="#fff"/>
    <path id="Path_751" data-name="Path 751" d="M435.591,191.2a.627.627,0,1,0-.627.628A.625.625,0,0,0,435.591,191.2Z" fill="#fff"/>
    <path id="Path_752" data-name="Path 752" d="M435.591,198.266a.627.627,0,1,0-.625.629A.625.625,0,0,0,435.591,198.266Z" fill="#fff"/>
    <path id="Path_753" data-name="Path 753" d="M435.591,205.336a.627.627,0,1,0-.625.625A.626.626,0,0,0,435.591,205.336Z" fill="#fff"/>
    <path id="Path_754" data-name="Path 754" d="M435.591,212.406a.627.627,0,1,0-.625.626A.625.625,0,0,0,435.591,212.406Z" fill="#fff"/>
    <path id="Path_755" data-name="Path 755" d="M435.591,219.475a.627.627,0,1,0-.625.627A.626.626,0,0,0,435.591,219.475Z" fill="#fff"/>
    <path id="Path_756" data-name="Path 756" d="M435.591,226.544a.627.627,0,1,0-.625.627A.624.624,0,0,0,435.591,226.544Z" fill="#fff"/>
    <path id="Path_757" data-name="Path 757" d="M435.591,233.614a.627.627,0,1,0-.625.626A.627.627,0,0,0,435.591,233.614Z" fill="#fff"/>
    <path id="Path_758" data-name="Path 758" d="M435.591,240.683a.627.627,0,1,0-.625.627A.627.627,0,0,0,435.591,240.683Z" fill="#fff"/>
    <path id="Path_759" data-name="Path 759" d="M435.591,247.752a.627.627,0,1,0-.625.627A.625.625,0,0,0,435.591,247.752Z" fill="#fff"/>
    <path id="Path_760" data-name="Path 760" d="M435.591,254.823a.627.627,0,1,0-.625.625A.627.627,0,0,0,435.591,254.823Z" fill="#fff"/>
    <path id="Path_761" data-name="Path 761" d="M428.522,162.918a.627.627,0,1,0-.628.629A.627.627,0,0,0,428.522,162.918Z" fill="#fff"/>
    <path id="Path_762" data-name="Path 762" d="M428.522,169.989a.627.627,0,1,0-.628.628A.627.627,0,0,0,428.522,169.989Z" fill="#fff"/>
    <path id="Path_763" data-name="Path 763" d="M428.522,177.057a.627.627,0,1,0-.628.629A.627.627,0,0,0,428.522,177.057Z" fill="#fff"/>
    <path id="Path_764" data-name="Path 764" d="M428.522,184.127a.627.627,0,1,0-.628.629A.628.628,0,0,0,428.522,184.127Z" fill="#fff"/>
    <path id="Path_765" data-name="Path 765" d="M428.522,191.2a.627.627,0,1,0-.628.628A.627.627,0,0,0,428.522,191.2Z" fill="#fff"/>
    <path id="Path_766" data-name="Path 766" d="M428.522,198.266a.627.627,0,1,0-.626.629A.626.626,0,0,0,428.522,198.266Z" fill="#fff"/>
    <path id="Path_767" data-name="Path 767" d="M428.522,205.336a.627.627,0,1,0-.626.625A.627.627,0,0,0,428.522,205.336Z" fill="#fff"/>
    <path id="Path_768" data-name="Path 768" d="M428.522,212.406a.627.627,0,1,0-.626.626A.627.627,0,0,0,428.522,212.406Z" fill="#fff"/>
    <path id="Path_769" data-name="Path 769" d="M428.522,219.475a.627.627,0,1,0-.626.627A.627.627,0,0,0,428.522,219.475Z" fill="#fff"/>
    <path id="Path_770" data-name="Path 770" d="M428.522,226.544a.627.627,0,1,0-.626.627A.625.625,0,0,0,428.522,226.544Z" fill="#fff"/>
    <path id="Path_771" data-name="Path 771" d="M428.522,233.614a.627.627,0,1,0-.626.626A.629.629,0,0,0,428.522,233.614Z" fill="#fff"/>
    <path id="Path_772" data-name="Path 772" d="M428.522,240.683a.627.627,0,1,0-.626.627A.629.629,0,0,0,428.522,240.683Z" fill="#fff"/>
    <path id="Path_773" data-name="Path 773" d="M428.522,247.752a.627.627,0,1,0-.626.627A.627.627,0,0,0,428.522,247.752Z" fill="#fff"/>
    <path id="Path_774" data-name="Path 774" d="M428.522,254.823a.627.627,0,1,0-.626.625A.629.629,0,0,0,428.522,254.823Z" fill="#fff"/>
    <path id="Path_775" data-name="Path 775" d="M421.452,162.918a.628.628,0,1,0-.627.629A.626.626,0,0,0,421.452,162.918Z" fill="#fff"/>
    <path id="Path_776" data-name="Path 776" d="M421.452,169.989a.628.628,0,1,0-.627.628A.626.626,0,0,0,421.452,169.989Z" fill="#fff"/>
    <path id="Path_777" data-name="Path 777" d="M421.452,177.057a.628.628,0,1,0-.627.629A.627.627,0,0,0,421.452,177.057Z" fill="#fff"/>
    <path id="Path_778" data-name="Path 778" d="M421.452,184.127a.628.628,0,1,0-.627.629A.627.627,0,0,0,421.452,184.127Z" fill="#fff"/>
    <path id="Path_779" data-name="Path 779" d="M421.452,191.2a.628.628,0,1,0-.627.628A.626.626,0,0,0,421.452,191.2Z" fill="#fff"/>
    <path id="Path_780" data-name="Path 780" d="M421.452,198.266a.628.628,0,1,0-.627.629A.626.626,0,0,0,421.452,198.266Z" fill="#fff"/>
    <path id="Path_781" data-name="Path 781" d="M421.452,205.336a.628.628,0,1,0-.627.625A.627.627,0,0,0,421.452,205.336Z" fill="#fff"/>
    <path id="Path_782" data-name="Path 782" d="M421.452,212.406a.628.628,0,1,0-.627.626A.626.626,0,0,0,421.452,212.406Z" fill="#fff"/>
    <path id="Path_783" data-name="Path 783" d="M421.452,219.475a.628.628,0,1,0-.627.627A.627.627,0,0,0,421.452,219.475Z" fill="#fff"/>
    <path id="Path_784" data-name="Path 784" d="M421.452,226.544a.628.628,0,1,0-.627.627A.625.625,0,0,0,421.452,226.544Z" fill="#fff"/>
    <path id="Path_785" data-name="Path 785" d="M421.452,233.614a.628.628,0,1,0-.627.626A.628.628,0,0,0,421.452,233.614Z" fill="#fff"/>
    <path id="Path_786" data-name="Path 786" d="M421.452,240.683a.628.628,0,1,0-.627.627A.628.628,0,0,0,421.452,240.683Z" fill="#fff"/>
    <path id="Path_787" data-name="Path 787" d="M421.452,247.752a.628.628,0,1,0-.627.627A.626.626,0,0,0,421.452,247.752Z" fill="#fff"/>
    <path id="Path_788" data-name="Path 788" d="M421.452,254.823a.628.628,0,1,0-.627.625A.628.628,0,0,0,421.452,254.823Z" fill="#fff"/>
    <path id="Path_789" data-name="Path 789" d="M414.384,162.918a.628.628,0,1,0-.629.629A.628.628,0,0,0,414.384,162.918Z" fill="#fff"/>
    <path id="Path_790" data-name="Path 790" d="M414.384,169.989a.628.628,0,1,0-.629.628A.628.628,0,0,0,414.384,169.989Z" fill="#fff"/>
    <path id="Path_791" data-name="Path 791" d="M414.384,177.057a.628.628,0,1,0-.629.629A.628.628,0,0,0,414.384,177.057Z" fill="#fff"/>
    <path id="Path_792" data-name="Path 792" d="M414.384,184.127a.628.628,0,1,0-.629.629A.628.628,0,0,0,414.384,184.127Z" fill="#fff"/>
    <path id="Path_793" data-name="Path 793" d="M414.384,191.2a.628.628,0,1,0-.629.628A.628.628,0,0,0,414.384,191.2Z" fill="#fff"/>
    <path id="Path_794" data-name="Path 794" d="M414.384,198.266a.627.627,0,1,0-.627.629A.627.627,0,0,0,414.384,198.266Z" fill="#fff"/>
    <path id="Path_795" data-name="Path 795" d="M414.384,205.336a.627.627,0,1,0-.627.625A.627.627,0,0,0,414.384,205.336Z" fill="#fff"/>
    <path id="Path_796" data-name="Path 796" d="M414.384,212.406a.627.627,0,1,0-.627.626A.627.627,0,0,0,414.384,212.406Z" fill="#fff"/>
    <path id="Path_797" data-name="Path 797" d="M414.384,219.475a.627.627,0,1,0-.627.627A.627.627,0,0,0,414.384,219.475Z" fill="#fff"/>
    <path id="Path_798" data-name="Path 798" d="M414.384,226.544a.627.627,0,1,0-.627.627A.625.625,0,0,0,414.384,226.544Z" fill="#fff"/>
    <path id="Path_799" data-name="Path 799" d="M414.384,233.614a.627.627,0,1,0-.627.626A.629.629,0,0,0,414.384,233.614Z" fill="#fff"/>
    <path id="Path_800" data-name="Path 800" d="M414.384,240.683a.627.627,0,1,0-.627.627A.629.629,0,0,0,414.384,240.683Z" fill="#fff"/>
    <path id="Path_801" data-name="Path 801" d="M414.384,247.752a.627.627,0,1,0-.627.627A.627.627,0,0,0,414.384,247.752Z" fill="#fff"/>
    <path id="Path_802" data-name="Path 802" d="M414.384,254.823a.627.627,0,1,0-.627.625A.629.629,0,0,0,414.384,254.823Z" fill="#fff"/>
    <path id="Path_803" data-name="Path 803" d="M407.313,162.918a.627.627,0,1,0-.626.629A.626.626,0,0,0,407.313,162.918Z" fill="#fff"/>
    <path id="Path_804" data-name="Path 804" d="M407.313,169.989a.626.626,0,1,0-.626.628A.626.626,0,0,0,407.313,169.989Z" fill="#fff"/>
    <path id="Path_805" data-name="Path 805" d="M407.313,177.057a.627.627,0,1,0-.626.629A.626.626,0,0,0,407.313,177.057Z" fill="#fff"/>
    <path id="Path_806" data-name="Path 806" d="M407.313,184.127a.627.627,0,1,0-.626.629A.627.627,0,0,0,407.313,184.127Z" fill="#fff"/>
    <path id="Path_807" data-name="Path 807" d="M407.313,191.2a.626.626,0,1,0-.626.628A.626.626,0,0,0,407.313,191.2Z" fill="#fff"/>
    <path id="Path_808" data-name="Path 808" d="M407.313,198.266a.627.627,0,1,0-.626.629A.626.626,0,0,0,407.313,198.266Z" fill="#fff"/>
    <path id="Path_809" data-name="Path 809" d="M407.313,205.336a.626.626,0,1,0-.626.625A.627.627,0,0,0,407.313,205.336Z" fill="#fff"/>
    <path id="Path_810" data-name="Path 810" d="M407.313,212.406a.626.626,0,1,0-.626.626A.626.626,0,0,0,407.313,212.406Z" fill="#fff"/>
    <path id="Path_811" data-name="Path 811" d="M407.313,219.475a.626.626,0,1,0-.626.627A.626.626,0,0,0,407.313,219.475Z" fill="#fff"/>
    <path id="Path_812" data-name="Path 812" d="M407.313,226.544a.626.626,0,1,0-.626.627A.624.624,0,0,0,407.313,226.544Z" fill="#fff"/>
    <path id="Path_813" data-name="Path 813" d="M407.313,233.614a.626.626,0,1,0-.626.626A.628.628,0,0,0,407.313,233.614Z" fill="#fff"/>
    <path id="Path_814" data-name="Path 814" d="M407.313,240.683a.626.626,0,1,0-.626.627A.628.628,0,0,0,407.313,240.683Z" fill="#fff"/>
    <path id="Path_815" data-name="Path 815" d="M407.313,247.752a.626.626,0,1,0-.626.627A.626.626,0,0,0,407.313,247.752Z" fill="#fff"/>
    <path id="Path_816" data-name="Path 816" d="M407.313,254.823a.626.626,0,1,0-.626.625A.628.628,0,0,0,407.313,254.823Z" fill="#fff"/>
    <path id="Path_817" data-name="Path 817" d="M400.244,162.918a.627.627,0,1,0-.626.629A.625.625,0,0,0,400.244,162.918Z" fill="#fff"/>
    <path id="Path_818" data-name="Path 818" d="M400.244,169.989a.626.626,0,1,0-.626.628A.625.625,0,0,0,400.244,169.989Z" fill="#fff"/>
    <path id="Path_819" data-name="Path 819" d="M400.244,177.057a.627.627,0,1,0-.626.629A.625.625,0,0,0,400.244,177.057Z" fill="#fff"/>
    <path id="Path_820" data-name="Path 820" d="M400.244,184.127a.627.627,0,1,0-.626.629A.625.625,0,0,0,400.244,184.127Z" fill="#fff"/>
    <path id="Path_821" data-name="Path 821" d="M400.244,191.2a.626.626,0,1,0-.626.628A.624.624,0,0,0,400.244,191.2Z" fill="#fff"/>
    <path id="Path_822" data-name="Path 822" d="M400.244,198.266a.627.627,0,1,0-.626.629A.624.624,0,0,0,400.244,198.266Z" fill="#fff"/>
    <path id="Path_823" data-name="Path 823" d="M400.244,205.336a.626.626,0,1,0-.626.625A.625.625,0,0,0,400.244,205.336Z" fill="#fff"/>
    <path id="Path_824" data-name="Path 824" d="M400.244,212.406a.626.626,0,1,0-.626.626A.625.625,0,0,0,400.244,212.406Z" fill="#fff"/>
    <path id="Path_825" data-name="Path 825" d="M400.244,219.475a.626.626,0,1,0-.626.627A.625.625,0,0,0,400.244,219.475Z" fill="#fff"/>
    <path id="Path_826" data-name="Path 826" d="M400.244,226.544a.626.626,0,1,0-.626.627A.623.623,0,0,0,400.244,226.544Z" fill="#fff"/>
    <path id="Path_827" data-name="Path 827" d="M400.244,233.614a.626.626,0,1,0-.626.626A.627.627,0,0,0,400.244,233.614Z" fill="#fff"/>
    <path id="Path_828" data-name="Path 828" d="M400.244,240.683a.626.626,0,1,0-.626.627A.627.627,0,0,0,400.244,240.683Z" fill="#fff"/>
    <path id="Path_829" data-name="Path 829" d="M400.244,247.752a.626.626,0,1,0-.626.627A.625.625,0,0,0,400.244,247.752Z" fill="#fff"/>
    <path id="Path_830" data-name="Path 830" d="M400.244,254.823a.626.626,0,1,0-.626.625A.627.627,0,0,0,400.244,254.823Z" fill="#fff"/>
    <path id="Path_831" data-name="Path 831" d="M393.175,162.918a.627.627,0,1,0-.627.629A.626.626,0,0,0,393.175,162.918Z" fill="#fff"/>
    <path id="Path_832" data-name="Path 832" d="M393.175,169.989a.627.627,0,1,0-.627.628A.626.626,0,0,0,393.175,169.989Z" fill="#fff"/>
    <path id="Path_833" data-name="Path 833" d="M393.175,177.057a.627.627,0,1,0-.627.629A.627.627,0,0,0,393.175,177.057Z" fill="#fff"/>
    <path id="Path_834" data-name="Path 834" d="M393.175,184.127a.627.627,0,1,0-.627.629A.627.627,0,0,0,393.175,184.127Z" fill="#fff"/>
    <path id="Path_835" data-name="Path 835" d="M393.175,191.2a.627.627,0,1,0-.627.628A.626.626,0,0,0,393.175,191.2Z" fill="#fff"/>
    <path id="Path_836" data-name="Path 836" d="M393.175,198.266a.627.627,0,1,0-.627.629A.626.626,0,0,0,393.175,198.266Z" fill="#fff"/>
    <path id="Path_837" data-name="Path 837" d="M393.175,205.336a.627.627,0,1,0-.627.625A.627.627,0,0,0,393.175,205.336Z" fill="#fff"/>
    <path id="Path_838" data-name="Path 838" d="M393.175,212.406a.627.627,0,1,0-.627.626A.626.626,0,0,0,393.175,212.406Z" fill="#fff"/>
    <path id="Path_839" data-name="Path 839" d="M393.175,219.475a.627.627,0,1,0-.627.627A.627.627,0,0,0,393.175,219.475Z" fill="#fff"/>
    <path id="Path_840" data-name="Path 840" d="M393.175,226.544a.627.627,0,1,0-.627.627A.625.625,0,0,0,393.175,226.544Z" fill="#fff"/>
    <path id="Path_841" data-name="Path 841" d="M393.175,233.614a.627.627,0,1,0-.627.626A.628.628,0,0,0,393.175,233.614Z" fill="#fff"/>
    <path id="Path_842" data-name="Path 842" d="M393.175,240.683a.627.627,0,1,0-.627.627A.628.628,0,0,0,393.175,240.683Z" fill="#fff"/>
    <path id="Path_843" data-name="Path 843" d="M393.175,247.752a.627.627,0,1,0-.627.627A.626.626,0,0,0,393.175,247.752Z" fill="#fff"/>
    <path id="Path_844" data-name="Path 844" d="M393.175,254.823a.627.627,0,1,0-.627.625A.628.628,0,0,0,393.175,254.823Z" fill="#fff"/>
    <path id="Path_845" data-name="Path 845" d="M386.105,162.918a.627.627,0,1,0-.625.629A.625.625,0,0,0,386.105,162.918Z" fill="#fff"/>
    <path id="Path_846" data-name="Path 846" d="M386.105,169.989a.627.627,0,1,0-.625.628A.625.625,0,0,0,386.105,169.989Z" fill="#fff"/>
    <path id="Path_847" data-name="Path 847" d="M386.105,177.057a.627.627,0,1,0-.625.629A.625.625,0,0,0,386.105,177.057Z" fill="#fff"/>
    <path id="Path_848" data-name="Path 848" d="M386.105,184.127a.627.627,0,1,0-.625.629A.626.626,0,0,0,386.105,184.127Z" fill="#fff"/>
    <path id="Path_849" data-name="Path 849" d="M386.105,191.2a.627.627,0,1,0-.625.628A.625.625,0,0,0,386.105,191.2Z" fill="#fff"/>
    <path id="Path_850" data-name="Path 850" d="M386.105,198.266a.627.627,0,1,0-.625.629A.625.625,0,0,0,386.105,198.266Z" fill="#fff"/>
    <path id="Path_851" data-name="Path 851" d="M386.105,205.336a.627.627,0,1,0-.625.625A.626.626,0,0,0,386.105,205.336Z" fill="#fff"/>
    <path id="Path_852" data-name="Path 852" d="M386.105,212.406a.627.627,0,1,0-.625.626A.625.625,0,0,0,386.105,212.406Z" fill="#fff"/>
    <path id="Path_853" data-name="Path 853" d="M386.105,219.475a.627.627,0,1,0-.625.627A.626.626,0,0,0,386.105,219.475Z" fill="#fff"/>
    <path id="Path_854" data-name="Path 854" d="M386.105,226.544a.627.627,0,1,0-.625.627A.624.624,0,0,0,386.105,226.544Z" fill="#fff"/>
    <path id="Path_855" data-name="Path 855" d="M386.105,233.614a.627.627,0,1,0-.625.626A.627.627,0,0,0,386.105,233.614Z" fill="#fff"/>
    <path id="Path_856" data-name="Path 856" d="M386.105,240.683a.627.627,0,1,0-.625.627A.627.627,0,0,0,386.105,240.683Z" fill="#fff"/>
    <path id="Path_857" data-name="Path 857" d="M386.105,247.752a.627.627,0,1,0-.625.627A.625.625,0,0,0,386.105,247.752Z" fill="#fff"/>
    <path id="Path_858" data-name="Path 858" d="M386.105,254.823a.627.627,0,1,0-.625.625A.627.627,0,0,0,386.105,254.823Z" fill="#fff"/>
    <path id="Path_859" data-name="Path 859" d="M379.036,162.918a.627.627,0,1,0-.627.629A.627.627,0,0,0,379.036,162.918Z" fill="#fff"/>
    <path id="Path_860" data-name="Path 860" d="M379.036,169.989a.627.627,0,1,0-.627.628A.626.626,0,0,0,379.036,169.989Z" fill="#fff"/>
    <path id="Path_861" data-name="Path 861" d="M379.036,177.057a.627.627,0,1,0-.627.629A.627.627,0,0,0,379.036,177.057Z" fill="#fff"/>
    <path id="Path_862" data-name="Path 862" d="M379.036,184.127a.627.627,0,1,0-.627.629A.627.627,0,0,0,379.036,184.127Z" fill="#fff"/>
    <path id="Path_863" data-name="Path 863" d="M379.036,191.2a.627.627,0,1,0-.627.628A.626.626,0,0,0,379.036,191.2Z" fill="#fff"/>
    <path id="Path_864" data-name="Path 864" d="M379.036,198.266a.627.627,0,1,0-.627.629A.626.626,0,0,0,379.036,198.266Z" fill="#fff"/>
    <path id="Path_865" data-name="Path 865" d="M379.036,205.336a.627.627,0,1,0-.627.625A.627.627,0,0,0,379.036,205.336Z" fill="#fff"/>
    <path id="Path_866" data-name="Path 866" d="M379.036,212.406a.627.627,0,1,0-.627.626A.626.626,0,0,0,379.036,212.406Z" fill="#fff"/>
    <path id="Path_867" data-name="Path 867" d="M379.036,219.475a.627.627,0,1,0-.627.627A.627.627,0,0,0,379.036,219.475Z" fill="#fff"/>
    <path id="Path_868" data-name="Path 868" d="M379.036,226.544a.627.627,0,1,0-.627.627A.625.625,0,0,0,379.036,226.544Z" fill="#fff"/>
    <path id="Path_869" data-name="Path 869" d="M379.036,233.614a.627.627,0,1,0-.627.626A.628.628,0,0,0,379.036,233.614Z" fill="#fff"/>
    <path id="Path_870" data-name="Path 870" d="M379.036,240.683a.627.627,0,1,0-.627.627A.628.628,0,0,0,379.036,240.683Z" fill="#fff"/>
    <path id="Path_871" data-name="Path 871" d="M379.036,247.752a.627.627,0,1,0-.627.627A.626.626,0,0,0,379.036,247.752Z" fill="#fff"/>
    <path id="Path_872" data-name="Path 872" d="M379.036,254.823a.627.627,0,1,0-.627.625A.628.628,0,0,0,379.036,254.823Z" fill="#fff"/>
    <path id="Path_873" data-name="Path 873" d="M371.967,162.918a.628.628,0,1,0-.628.629A.627.627,0,0,0,371.967,162.918Z" fill="#fff"/>
    <path id="Path_874" data-name="Path 874" d="M371.967,169.989a.628.628,0,1,0-.628.628A.626.626,0,0,0,371.967,169.989Z" fill="#fff"/>
    <path id="Path_875" data-name="Path 875" d="M371.967,177.057a.628.628,0,1,0-.628.629A.627.627,0,0,0,371.967,177.057Z" fill="#fff"/>
    <path id="Path_876" data-name="Path 876" d="M371.967,184.127a.628.628,0,1,0-.628.629A.627.627,0,0,0,371.967,184.127Z" fill="#fff"/>
    <path id="Path_877" data-name="Path 877" d="M371.967,191.2a.628.628,0,1,0-.628.628A.626.626,0,0,0,371.967,191.2Z" fill="#fff"/>
    <path id="Path_878" data-name="Path 878" d="M371.967,198.266a.628.628,0,1,0-.628.629A.626.626,0,0,0,371.967,198.266Z" fill="#fff"/>
    <path id="Path_879" data-name="Path 879" d="M371.967,205.336a.628.628,0,1,0-.628.625A.627.627,0,0,0,371.967,205.336Z" fill="#fff"/>
    <path id="Path_880" data-name="Path 880" d="M371.967,212.406a.628.628,0,1,0-.628.626A.626.626,0,0,0,371.967,212.406Z" fill="#fff"/>
    <path id="Path_881" data-name="Path 881" d="M371.967,219.475a.628.628,0,1,0-.628.627A.627.627,0,0,0,371.967,219.475Z" fill="#fff"/>
    <path id="Path_882" data-name="Path 882" d="M371.967,226.544a.628.628,0,1,0-.628.627A.625.625,0,0,0,371.967,226.544Z" fill="#fff"/>
    <path id="Path_883" data-name="Path 883" d="M371.967,233.614a.628.628,0,1,0-.628.626A.629.629,0,0,0,371.967,233.614Z" fill="#fff"/>
    <path id="Path_884" data-name="Path 884" d="M371.967,240.683a.628.628,0,1,0-.628.627A.628.628,0,0,0,371.967,240.683Z" fill="#fff"/>
    <path id="Path_885" data-name="Path 885" d="M371.967,247.752a.628.628,0,1,0-.628.627A.626.626,0,0,0,371.967,247.752Z" fill="#fff"/>
    <path id="Path_886" data-name="Path 886" d="M371.967,254.823a.628.628,0,1,0-.628.625A.629.629,0,0,0,371.967,254.823Z" fill="#fff"/>
  </g>
</svg>
