<svg xmlns="http://www.w3.org/2000/svg" width="18.03" height="18.03" viewBox="0 0 18.03 18.03">
  <g id="cv_3_-_facebook-icon" data-name="cv 3 - facebook-icon" transform="translate(-460.881 -73.783)">
    <g id="group_30" data-name="group 30">
      <g id="Group_33" data-name="Group 33">
        <path id="Path_450" data-name="Path 450" d="M469.9,91.813a9.015,9.015,0,1,1,9.015-9.015A9.025,9.025,0,0,1,469.9,91.813Z" fill="#3f7167"/>
      </g>
    </g>
    <g id="Group_35" data-name="Group 35">
      <path id="Path_451" data-name="Path 451" d="M468.482,82.84v5.225a.136.136,0,0,0,.136.136h1.94a.135.135,0,0,0,.136-.136v-5.31H472.1a.136.136,0,0,0,.136-.124l.135-1.6a.136.136,0,0,0-.136-.148h-1.542V79.748a.482.482,0,0,1,.482-.482h1.084a.136.136,0,0,0,.136-.136v-1.6a.136.136,0,0,0-.136-.136h-1.832a1.947,1.947,0,0,0-1.946,1.947v1.542h-.97a.136.136,0,0,0-.136.136v1.6a.136.136,0,0,0,.136.136h.97Z" fill="#fff" fill-rule="evenodd"/>
    </g>
  </g>
</svg>
